<svg xmlns="http://www.w3.org/2000/svg" width="25" height="25" viewBox="0 0 48 48">
  <path fill="#4285F4" d="M24 9.5c3.54 0 6.71 1.22 9.21 3.61l6.85-6.85C35.98 2.22 30.47 0 24 0 14.7 0 6.72 5.68 2.69 14.03l7.98 6.19C12.21 13.79 17.59 9.5 24 9.5z"/>
  <path fill="#34A853" d="M46.1 24.55c0-1.57-.14-3.09-.41-4.55H24v9.03h12.49c-.54 2.76-2.18 5.11-4.66 6.68l7.52 5.84C43.57 37.3 46.1 31.41 46.1 24.55z"/>
  <path fill="#FBBC05" d="M10.67 28.22c-.5-1.48-.79-3.05-.79-4.67s.29-3.19.79-4.67l-7.98-6.19C.94 16.37 0 20.09 0 23.55s.94 7.18 2.69 10.85l7.98-6.19z"/>
  <path fill="#EA4335" d="M24 47c6.47 0 11.95-2.13 15.94-5.79l-7.52-5.84c-2.14 1.44-4.92 2.29-8.42 2.29-6.41 0-11.79-4.29-13.33-10.05l-7.98 6.19C6.72 42.32 14.7 47 24 47z"/>
</svg>
