<svg width="400" height="400" viewBox="0 0 400 400" fill="none" xmlns="http://www.w3.org/2000/svg">
<path d="M123 330C123 330 100 310 110 260C120 210 140 180 140 180L180 190L200 250L210 330H123Z" fill="#FFD56B"/>
<path d="M260 330C260 330 280 270 270 220C260 170 240 150 240 150L200 160L180 220L160 330H260Z" fill="#7AB8FF"/>
<circle cx="180" cy="130" r="45" fill="#FFE0BD"/>
<circle cx="240" cy="130" r="45" fill="#FFE0BD"/>
<path d="M150 90C155 70 175 60 195 75C215 60 235 70 240 90" stroke="#1A1A1A" stroke-width="6" stroke-linecap="round"/>
<path d="M200 330C240 330 270 360 270 360H110C110 360 140 330 180 330H200Z" fill="#353535"/>
<path d="M290 70L310 50L330 70" stroke="#FF8A80" stroke-width="10" stroke-linecap="round"/>
<path d="M70 70L90 50L110 70" stroke="#FFB84C" stroke-width="10" stroke-linecap="round"/>
</svg>
